<svg role="img" viewBox="0 0 28 28" xmlns="http://www.w3.org/2000/svg" id="Livewire--Streamline-Simple-Icons" height="28" width="28"><desc>Livewire Streamline Icon: https://streamlinehq.com</desc><title>Livewire</title><path d="M14.001166666666666 0C7.202416666666667 0 1.6895666666666667 5.78305 1.6895666666666667 12.917683333333335c0 2.4369333333333336 0.6437666666666667 4.715316666666666 1.7614333333333334 6.6605 0.29073333333333334 0.32620000000000005 0.6346666666666667 0.5650166666666667 1.1257166666666667 0.5650166666666667 1.5619333333333334 0 1.4791 -2.408466666666667 3.041966666666667 -2.408466666666667 1.56275 0 1.6462833333333335 2.408466666666667 3.2083333333333335 2.408466666666667 1.5619333333333334 0 1.4768833333333335 -2.408466666666667 3.0396333333333336 -2.408466666666667 0.6819166666666667 0 1.0824333333333334 0.4628166666666667 1.4470166666666666 0.9797666666666667 -0.2581833333333333 -0.23975 -0.5593 -0.40553333333333336 -0.9570166666666667 -0.40553333333333336 -1.3948666666666667 0 -1.5240166666666668 1.956616666666667 -2.5680666666666667 2.4973666666666667v5.261316666666667c0 1.0669166666666667 0.8654333333333334 1.9323500000000002 1.9322333333333332 1.9323500000000002 1.0669166666666667 0 1.9323500000000002 -0.8654333333333334 1.9323500000000002 -1.9323500000000002v-6.874583333333334c0.35933333333333334 0.5054 0.7548333333333334 0.9501333333333334 1.42415 0.9501333333333334 1.5619333333333334 0 1.477 -2.408466666666667 3.03975 -2.408466666666667 0.5425000000000001 0 0.9023 0.29773333333333335 1.2121666666666666 0.6766666666666666 -0.15096666666666667 -0.06218333333333334 -0.31441666666666673 -0.10243333333333335 -0.5013166666666667 -0.10243333333333335 -1.3512333333333333 0 -1.5120000000000002 1.8363333333333336 -2.4699500000000003 2.4426500000000004v2.8415333333333335c0 0.9601666666666667 0.7784000000000001 1.7385666666666668 1.7385666666666668 1.7385666666666668s1.7385666666666668 -0.7784000000000001 1.7385666666666668 -1.7385666666666668V19.0995c0.3773 0.5433166666666667 0.7798 1.0435833333333333 1.4903000000000002 1.0435833333333333 0.9280833333333334 0 1.2751666666666668 -0.8501500000000001 1.7316833333333335 -1.54035 0.8024333333333333 -1.7154666666666667 1.2533500000000002 -3.64525 1.2533500000000002 -5.685166666666667C26.310433333333336 5.78305 20.7998 0 14.001166666666666 0zm-0.6608 3.3565c3.3596500000000002 0 6.083933333333334 3.247533333333333 6.083933333333334 6.774366666666667 0 3.5268333333333337 -1.8030833333333336 6.008800000000001 -6.083933333333334 6.008800000000001 -4.28085 0 -6.08405 -2.481966666666667 -6.08405 -6.008800000000001S9.9806 3.3565 13.340366666666666 3.3565zm-1.6361333333333334 1.9366666666666668a2.2813000000000003 2.518016666666667 0 0 0 -2.2808333333333337 2.5179 2.2813000000000003 2.518016666666667 0 0 0 2.2808333333333337 2.5179 2.2813000000000003 2.518016666666667 0 0 0 2.2809500000000003 -2.5179 2.2813000000000003 2.518016666666667 0 0 0 -2.2808333333333337 -2.5179zm-0.38045 0.7746666666666667a1.1406500000000002 1.1621166666666667 0 0 1 1.1415833333333334 1.1622333333333335 1.1406500000000002 1.1621166666666667 0 0 1 -1.1415833333333334 1.1620000000000001 1.1406500000000002 1.1621166666666667 0 0 1 -1.1393666666666669 -1.1620000000000001 1.1406500000000002 1.1621166666666667 0 0 1 1.1393666666666669 -1.1621166666666667zM7.882933333333334 18.309083333333334c-1.2537 0 -1.4844666666666668 1.5799 -2.2762833333333337 2.292266666666667v2.0781833333333335c0 0.9601666666666667 0.7784000000000001 1.7385666666666668 1.7385666666666668 1.7385666666666668s1.7385666666666668 -0.7784000000000001 1.7385666666666668 -1.7385666666666668v-3.711983333333334c-0.30835 -0.37765 -0.6728166666666667 -0.6584666666666668 -1.2008500000000002 -0.6584666666666668Z" fill="#ec4899" stroke-width="1.1667"></path></svg>