<svg width="73" height="73" viewBox="0 0 73 73" fill="none" xmlns="http://www.w3.org/2000/svg">
<rect width="73" height="73" rx="20" fill="#17191C"/>
<g clip-path="url(#clip0_1_10205)">
<path fill-rule="evenodd" clip-rule="evenodd" d="M41.4733 29.0559C40.001 28.0722 38.2701 27.5471 36.4994 27.5471V18.5942C40.0408 18.5942 43.5027 19.6444 46.4473 21.6119C49.3918 23.5794 51.6868 26.3759 53.0421 29.6477C54.3973 32.9195 54.7519 36.5198 54.061 39.9931C53.3701 43.4665 51.6648 46.657 49.1606 49.1611C46.6565 51.6653 43.466 53.3706 39.9926 54.0615C36.5193 54.7524 32.919 54.3978 29.6472 53.0426C26.3754 51.6873 23.5789 49.3923 21.6114 46.4477C19.6439 43.5032 18.5938 40.0413 18.5938 36.4999H27.5466C27.5466 38.2706 28.0717 40.0015 29.0554 41.4738C30.0391 42.9461 31.4374 44.0936 33.0733 44.7712C34.7092 45.4489 36.5093 45.6261 38.246 45.2807C39.9827 44.9353 41.5779 44.0826 42.83 42.8305C44.0821 41.5784 44.9348 39.9832 45.2802 38.2465C45.6257 36.5098 45.4484 34.7097 44.7708 33.0738C44.0931 31.4379 42.9456 30.0396 41.4733 29.0559Z" fill="#C7CBD1"/>
<path fill-rule="evenodd" clip-rule="evenodd" d="M27.5466 18.5942C27.5466 19.7699 27.315 20.9341 26.8651 22.0203C26.4152 23.1065 25.7557 24.0935 24.9244 24.9249C24.093 25.7562 23.1061 26.4157 22.0199 26.8656C20.9336 27.3155 19.7694 27.5471 18.5938 27.5471L18.5938 36.4999C20.9452 36.4999 23.2735 36.0368 25.446 35.1369C27.6184 34.2371 29.5923 32.9181 31.2549 31.2554C32.9176 29.5928 34.2366 27.6189 35.1364 25.4464C36.0363 23.274 36.4994 20.9456 36.4994 18.5942L27.5466 18.5942Z" fill="#C7CBD1"/>
</g>
<defs>
<clipPath id="clip0_1_10205">
<rect width="35.8113" height="35.8113" fill="white" transform="translate(18.5938 18.5942)"/>
</clipPath>
</defs>
</svg>
